<?xml version="1.0" encoding="iso-8859-1"?>
<!-- Generator: Adobe Illustrator 21.0.0, SVG Export Plug-In . SVG Version: 6.00 Build 0)  -->
<svg version="1.1" id="Layer_1" xmlns="http://www.w3.org/2000/svg" xmlns:xlink="http://www.w3.org/1999/xlink" x="0px" y="0px"
	 viewBox="0 0 556 219.982" style="enable-background:new 0 0 556 219.982;" xml:space="preserve">
<path style="fill:#E9F5F0;" d="M547.122,175.158c-6.237,9.95-8.69,15.084-18.285,20.385c-4.335,3.037-8.847,5.673-13.495,7.975
	c-13.931,6.888-29.088,10.76-44.266,13.077c-5.054,0.597-10.138,0.946-15.21,1.075c-15.214,0.39-30.304-1.185-44.079-3.902
	c-5.591-0.6-11.208-1.323-16.847-2.139c-11.278-1.633-17.724-0.642-34.012-1.729c-5.764-0.385-11.367-2.101-17.015-3.034
	c-51.038-5.384-100.24-5.543-150.313-3.751c-4.601,0.541-32.858,6.292-37.483,6.97c-21.864,5.43-24.702,3.688-46.4,7.337
	c-7.233,1.216-14.447,2.034-21.637,2.252c-18.698,1.575-38.629-3.09-51.692-9.747c-3.995-2.036-13.253-9.247-16.539-12.444
	c-23.762-23.301-20.955-58.37-17.739-92.073c0.536-5.618,0.893-11.214,1.971-16.758C10.599,7.124,67.504,0,137.863,6.52
	c5.735,0.531,182.658,7.573,267.462-2.085c7.242-1.084,34.669-2.266,41.916-3.503c12.281-2.094,52.12-1.041,67.646,7.096
	c3.9,2.044,5.594,4.184,9.25,6.788c3.656,2.604,7.705,9.062,11.073,12.218c21.164,31.374,23.967,77.834,18.131,126.102
	C552.92,164.549,547.122,175.158,547.122,175.158z"/>
</svg>
