<?xml version="1.0" encoding="iso-8859-1"?>
<!-- Generator: Adobe Illustrator 21.0.0, SVG Export Plug-In . SVG Version: 6.00 Build 0)  -->
<svg version="1.1" id="Layer_1" xmlns="http://www.w3.org/2000/svg" xmlns:xlink="http://www.w3.org/1999/xlink" x="0px" y="0px"
	 viewBox="0 0 42.013 41.996" style="enable-background:new 0 0 42.013 41.996;" xml:space="preserve">
<path style="fill:#EF4123;" d="M41.856,32.556c-0.555,7.334-6.032,8.946-12.239,9.193c-0.621,0.024-1.25,0.058-1.883,0.018
	c-6.992-0.443-17.031,0.446-13.549,0.178c1.229-0.095-2.311,0-3.14,0c-1.105,0-1.769,0-1.769,0c-5.104,0-9.243-4.097-9.243-9.152
	c0,0,0-0.256,0.007-0.716c-0.007-4.622,1.534-9.961,0.825-14.458c0.012,0.138-0.352-2.978-0.828-4.623
	c-0.017-0.51-0.019-1.023-0.021-1.54C0.012,10.419,0.007,9.364,0,8.273C0.083,7.792,0.189,7.321,0.321,6.86
	c0.397-1.382,1.033-2.666,2.023-3.81C3.018,2.383,3.74,1.848,4.502,1.43C13.128-1.525,22.37,2.288,31.385,0c1.105,0,1.769,0,1.769,0
	c1.276,0,2.492,0.256,3.598,0.72c1.106,0.463,2.101,1.133,2.923,1.96c3.627,5.951,2.156,11.04,1.361,16.954
	c-0.159,1.183-0.462,3.374-0.504,4.539c0.325,2.52,0.325,4.045,1.114,6.703C41.779,31.926,41.856,32.556,41.856,32.556z"/>
</svg>
