<?xml version="1.0" encoding="iso-8859-1"?>
<!-- Generator: Adobe Illustrator 21.0.0, SVG Export Plug-In . SVG Version: 6.00 Build 0)  -->
<svg version="1.1" id="Layer_1" xmlns="http://www.w3.org/2000/svg" xmlns:xlink="http://www.w3.org/1999/xlink" x="0px" y="0px"
	 viewBox="0 0 132.024 48.003" style="enable-background:new 0 0 132.024 48.003;" xml:space="preserve">
<path style="fill:#EF4123;" d="M129.726,38.222c-1.614,2.171-2.249,3.291-4.733,4.448c-1.122,0.663-2.29,1.238-3.493,1.74
	c-3.606,1.503-7.53,2.348-11.459,2.854c-1.308,0.13-2.625,0.207-3.937,0.235c-3.938,0.085-7.845,0.741-11.41,0.149
	c-1.447-0.131-2.901-0.289-4.361-0.467c-3.462-0.423-12.188-0.835-13.209-0.912c-12.273-0.307-13.572-0.689-24.844-0.818
	c-1.196,0.068-13.916,0.373-15.113,0.521c-5.66,1.185-6.394,0.678-12.011,1.474c-1.872,0.265-3.74,0.444-5.601,0.491
	c-4.84,0.344-6.754-0.674-10.135-2.127c-1.034-0.444-3.431-2.018-4.281-2.716c-6.151-5.085-5.424-12.737-4.592-20.091
	c0.139-1.226,0.231-2.447,0.51-3.657C2.744,1.555,13.146,0,31.359,1.423c1.484,0.116,38.627,1.652,60.579-0.455
	c1.875-0.237,8.974-0.495,10.85-0.764c3.179-0.457,14.574-0.227,18.593,1.549c1.01,0.446,1.448,0.913,2.395,1.481
	c0.946,0.568,1.994,1.978,2.866,2.666c5.478,6.846,6.204,16.984,4.694,27.517C131.226,35.906,129.726,38.222,129.726,38.222z"/>
</svg>
